<?xml version="1.0" encoding="utf-8"?>
<!-- Generator: Adobe Illustrator 24.0.0, SVG Export Plug-In . SVG Version: 6.00 Build 0)  -->
<svg version="1.1" id="Layer_1" xmlns="http://www.w3.org/2000/svg" xmlns:xlink="http://www.w3.org/1999/xlink" x="0px" y="0px"
	 viewBox="0 0 501 500.8" style="enable-background:new 0 0 501 500.8;" xml:space="preserve">
<style type="text/css">
	.st0{fill:#3A1EE2;}
</style>
<path class="st0" d="M351.6,262c-11.9,0-23.7,0-35.6,0c-11.1,0-19.6,4.6-25.7,13.8c-11.6,17.5-31.4,25.2-51.6,20.2
	c-20.9-5.2-35.5-24.5-35.2-46.7c0.3-21.5,15.8-40.5,37-44.8c17.6-3.6,32.9,1.2,45,14.6c22.3,24.5,58.6,26.7,83.4,5
	c3.4-3,6.1-6.5,8.5-10.3c22.2-34.6,71.2-41,101.3-13.2c35.2,32.5,27.3,88.6-15.5,110.2c-11.1,5.6-23,7.2-35.3,6.8
	c-22.8-0.7-43.8,5.2-62.1,18.8c-28.2,21-44.4,49.3-48,84.5c-0.7,7,0,14-0.7,21c-3.4,32.5-32.6,58.8-65.4,58.8
	c-34.7,0.1-61.9-22.2-67.7-55.5c-1-5.8-0.8-11.6-0.7-17.5c0.2-22.5-6.1-43.2-20.6-60.6c-12.6-15.2-26.5-29-44.6-37.8
	c-16.1-7.9-33.1-11.5-50.9-11.7c-24.7-0.3-43.9-11-57.2-31.8C-5.7,261-2.7,227.9,17,206c13.5-15,30.5-22,50.7-22.9
	c42.6-1.9,77.7-18.9,101.8-55c11.7-17.5,15.4-37.3,13.9-58.4c-1.2-16.6,4.1-31.8,14.9-44.7c25.9-31.1,70-33.6,99.4-5.9
	c27.8,26.2,26.5,73-2.7,98.5c-6.3,5.5-6.3,5.5-12.3-0.5c-7.9-7.8-15.7-15.7-23.6-23.5c-6.5-6.5-13.5-6.5-20.1,0.1
	c-48.8,48.8-97.7,97.6-146.5,146.4c-6.9,6.9-6.9,15.8,0,22.7c48.6,48.6,97.3,97.3,145.9,145.9c6.7,6.7,14.5,6.6,21.2-0.1
	c44.8-44.7,89.5-89.5,134.3-134.2c2.4-2.4,4.1-5,2.6-8.4c-1.5-3.4-4.4-4.1-7.9-4.1C376.4,262,364,262,351.6,262z"/>
</svg>
