<?xml version="1.0" encoding="utf-8"?>
<!-- Generator: Adobe Illustrator 24.0.0, SVG Export Plug-In . SVG Version: 6.00 Build 0)  -->
<svg version="1.1" id="Layer_1" xmlns="http://www.w3.org/2000/svg" xmlns:xlink="http://www.w3.org/1999/xlink" x="0px" y="0px"
	 viewBox="0 0 247.3 60" style="enable-background:new 0 0 247.3 60;" xml:space="preserve">
<style type="text/css">
	.st0{fill:#462BE7;}
</style>
<g>
	<g>
		<path class="st0" d="M39.7,30.4c-1.2,0-2.3,0-3.5,0c-1.5-0.1-2.6,0.5-3.4,1.7c-2.2,3.1-6.8,3-8.8-0.1c-1.5-2.3-1-5.4,1.2-7.1
			c2.2-1.7,5.3-1.5,7.2,0.6c2.6,2.8,6.5,3.1,9.3,0.8c0.5-0.4,0.8-0.8,1.1-1.3c2.2-3.2,6-4.4,9.4-2.9c3.4,1.4,5.2,5,4.5,8.6
			c-0.7,3.5-3.9,6.2-7.7,6c-7.2-0.3-12.1,5.4-12.8,11c-0.1,1-0.1,2-0.2,3c-0.6,4.3-4.1,7-8.5,6.6c-3.8-0.3-6.8-3.8-6.7-7.8
			c0.1-2.4-0.4-4.6-1.8-6.5c-2.8-3.8-6.3-6.3-11.2-6.3c-4.3,0-7.7-3.3-7.8-7.5c-0.1-4.2,3.2-7.6,7.5-7.7c4.4-0.2,8.1-1.8,10.9-5.2
			c1.8-2.1,2.5-4.6,2.4-7.4c-0.3-4.4,3-8.1,7.4-8.3C32.5,0.5,36,4,36,8.3c0,2.3-0.9,4.2-2.7,5.8c-0.4,0.4-0.7,0.5-1.2,0
			c-0.8-0.9-1.8-1.8-2.7-2.7c-0.9-0.9-1.6-0.9-2.5,0C21.5,16.8,16,22.3,10.6,27.8c-0.9,0.9-0.9,1.8,0,2.8C16,36,21.4,41.4,26.9,46.8
			c1,1,1.7,1,2.7,0c4.9-4.9,9.9-9.9,14.8-14.8c0.3-0.3,0.7-0.6,0.5-1.2c-0.2-0.6-0.7-0.5-1.2-0.5C42.4,30.4,41,30.4,39.7,30.4z"/>
		<path class="st0" d="M92.4,29.2c2.6,0,5.1,0,7.7,0c0.6,0,0.8,0.2,0.9,0.8c0.6,6.8-2.5,11.5-9.5,13.5c-5.1,1.5-10.3,1.6-15.4-0.1
			c-4.8-1.6-8.2-4.7-9.5-9.7c-1.7-6.7,0.9-13,7-16.2c7.7-4.1,15.4-3.8,22.8,0.6c2.1,1.2,2,1.3,0.5,3.1c-0.6,0.7-1.2,1.8-2,2
			c-0.8,0.3-1.6-0.8-2.4-1.3c-4.9-2.6-10-3.1-15.1-0.6c-3,1.4-5.1,3.7-5.5,7.2c-0.6,4.9,1.9,8.7,6.7,10.1c4.6,1.4,9.1,1.2,13.5-0.9
			c1.3-0.6,2.4-1.6,3-3c0.3-0.7,0.2-1-0.6-1c-3.2,0-6.5,0-9.7,0c-0.6,0-0.9-0.2-0.8-0.8c0.1-1,0.1-2,0-3c0-0.7,0.1-0.9,0.9-0.9
			C87.3,29.3,89.9,29.2,92.4,29.2z"/>
		<path class="st0" d="M125.2,14.8c4.2,0.1,8.5,1.4,12.3,4.2c0.5,0.4,0.7,0.6,0.2,1.2c-0.8,1-1.5,2.1-2.2,3.2
			c-0.3,0.5-0.6,0.6-1.1,0.2c-3.5-2.8-7.4-4-11.8-3.4c-3.7,0.5-6.8,2.1-8.7,5.5c-2.1,3.9-0.9,9,2.9,11.4c5.2,3.3,10.5,3.4,15.9,0.3
			c0.8-0.4,1.5-1,2.2-1.5c0.4-0.3,0.6-0.3,0.9,0.2c0.6,1.1,1.2,2.1,1.9,3.2c0.3,0.5,0.3,0.8-0.3,1.2c-2.8,1.9-5.9,3.4-9.3,3.9
			c-4.9,0.8-9.6,0.2-13.8-2.4c-9.7-6-9.3-19.2,0.7-24.7C118,15.5,121.3,14.8,125.2,14.8z"/>
		<path class="st0" d="M149.5,25.8c1.7-1.7,3.5-2.8,5.7-3.4c3.1-0.8,6.2-0.9,9.2,0.7c3.2,1.7,4.6,4.5,4.6,8.1c0.1,4.1,0,8.2,0,12.3
			c0,0.6-0.1,0.9-0.8,0.8c-1.2-0.1-2.3-0.1-3.5,0c-0.7,0-0.9-0.2-0.9-0.9c0-3.4-0.2-6.8,0.1-10.2c0.3-4.6-3.7-7-7.2-6.8
			c-3.3,0.2-7.4,3.1-7.1,7.4c0.1,1.1,0,2.2,0,3.3c0,2.1,0,4.2,0,6.4c0,0.6-0.1,0.8-0.8,0.8c-1.2,0-2.5,0-3.7,0
			c-0.5,0-0.7-0.1-0.7-0.7c0-9.8,0-19.6,0-29.5c0-0.6,0.2-0.7,0.7-0.7c1.2,0,2.4,0,3.6,0c0.7,0,0.8,0.2,0.8,0.8c0,3.5,0,7,0,10.4
			C149.5,25,149.5,25.3,149.5,25.8z"/>
		<path class="st0" d="M227.7,26.2c1-1,1.9-1.9,2.9-2.5c4-2.5,9.7-2.4,13.2,0.3c2.4,1.8,3.4,4.4,3.4,7.3c0.1,4.1,0,8.2,0,12.3
			c0,0.6-0.2,0.8-0.8,0.8c-1.2,0-2.4-0.1-3.6,0c-0.7,0-0.8-0.2-0.8-0.8c0-3.5-0.1-7.1,0-10.6c0.1-3.2-2.1-5.7-5.2-6.2
			c-3.3-0.5-6,0.5-8.1,3.2c-0.7,1-1.1,2-1.1,3.3c0,3.4,0,6.9,0,10.3c0,0.7-0.2,0.9-0.9,0.9c-1.2-0.1-2.4,0-3.6,0
			c-0.5,0-0.7-0.1-0.7-0.6c0-6.9,0-13.8,0-20.7c0-0.5,0.2-0.6,0.7-0.6c1.3,0,2.5,0,3.8,0c0.5,0,0.6,0.2,0.6,0.7
			C227.7,24,227.7,25,227.7,26.2z"/>
		<path class="st0" d="M210.6,33.2c0-3.4,0-6.8,0-10.2c0-0.6,0.1-0.8,0.7-0.8c1.3,0,2.5,0,3.8,0c0.5,0,0.6,0.1,0.6,0.6
			c0,6.9,0,13.8,0,20.7c0,0.6-0.2,0.7-0.7,0.6c-1.2,0-2.5,0-3.7,0c-0.6,0-0.8-0.2-0.8-0.8C210.6,40.1,210.6,36.6,210.6,33.2z"/>
		<path class="st0" d="M213.1,19.9c-2.1,0-3.3-1-3.3-2.9c0-1.9,1.2-3,3.2-3.1c2.1,0,3.4,1,3.4,2.9C216.3,18.8,215.2,19.9,213.1,19.9
			z"/>
		<path class="st0" d="M203.5,28.8c0-1.9,0-3.9,0-5.8c0-0.6-0.2-0.7-0.7-0.7c-1.3,0-2.5,0-3.8,0c-0.5,0-0.7,0.1-0.6,0.6
			c0,0.7,0,1.4,0,2.1c-0.2-0.1-0.3-0.1-0.4-0.2c-5.4-3.7-11.1-4.1-16.8-1.2c-4,2-5.9,5.5-5.7,10c0.1,4.4,2.1,7.7,6.1,9.6
			c4.4,2.1,8.9,2,13.4,0c1.2-0.6,2.3-1.4,3.5-2.4c0,1,0,1.8,0,2.7c0,0.6,0.1,0.8,0.8,0.8c1.2-0.1,2.3-0.1,3.5,0
			c0.7,0,0.9-0.2,0.9-0.9C203.4,38.5,203.5,33.7,203.5,28.8z M194,39.3c-1.4,0.6-2.9,0.8-4.4,0.8c-2.9-0.1-5.6-0.7-7.5-3
			c-2.1-2.4-1.9-5.9,0.4-8.1c1.3-1.3,2.9-2,4.6-2.3c2.3-0.4,4.6-0.3,6.8,0.5c2.9,1.1,4.6,3.4,4.6,6C198.5,35.9,196.8,38.2,194,39.3z
			"/>
	</g>
</g>
</svg>
