<?xml version="1.0" encoding="utf-8"?>
<!-- Generator: Adobe Illustrator 24.0.0, SVG Export Plug-In . SVG Version: 6.00 Build 0)  -->
<svg version="1.1" id="Layer_1" xmlns="http://www.w3.org/2000/svg" xmlns:xlink="http://www.w3.org/1999/xlink" x="0px" y="0px"
	 viewBox="0 0 60 60" style="enable-background:new 0 0 60 60;" xml:space="preserve">
<style type="text/css">
	.st0{fill:#008BFE;}
	.st1{fill:#FFFFFF;}
</style>
<circle class="st0" cx="30" cy="30" r="30"/>
<path class="st1" d="M34.5,47.8c-0.1,0-0.2,0-0.4,0c-5.6,0-11.2,0-16.8,0c0-2.4,0-4.7,0-7.1c0-0.3,0.2-0.3,0.4-0.3
	c5.4,0,10.9,0,16.3,0c0.4,0,0.9,0,1.3-0.1c1.3-0.3,2-1.1,2.2-2.3c0.1-0.7,0.1-1.5-0.1-2.2c-0.3-1.2-1.2-2-2.6-2.1
	c-0.4,0-0.7,0-1.1,0c-3.1,0-6.2,0.1-9.2,0c-1.4,0-2.9-0.3-4.2-0.9c-2.5-1-4.1-2.9-4.8-5.5c-0.8-2.9-0.8-5.9,0.1-8.8
	c1-3.2,3.3-5.1,6.5-5.8c1.1-0.3,2.3-0.4,3.4-0.4c5.4,0,10.7,0,16.1,0c0.3,0,0.4,0.1,0.4,0.4c0,2.2,0,4.4,0,6.6
	c0,0.3-0.1,0.4-0.4,0.4c-5.3,0-10.5,0-15.8,0c-0.5,0-0.9,0-1.4,0.1c-1.1,0.3-1.7,0.9-2,2c-0.2,0.8-0.2,1.7,0,2.5
	c0.3,1.2,1.2,1.9,2.5,2.1c0.3,0,0.7,0.1,1,0.1c3,0,6.1,0,9.1,0c1.6,0,3.1,0.3,4.6,0.9c2.4,1,4,2.9,4.7,5.4c0.8,2.9,0.8,5.8,0,8.7
	c-0.9,3.3-3.2,5.2-6.5,6C36.8,47.6,35.7,47.7,34.5,47.8z"/>
</svg>
