<?xml version="1.0" encoding="utf-8"?>
<!-- Generator: Adobe Illustrator 24.0.0, SVG Export Plug-In . SVG Version: 6.00 Build 0)  -->
<svg version="1.1" id="Layer_1" xmlns="http://www.w3.org/2000/svg" xmlns:xlink="http://www.w3.org/1999/xlink" x="0px" y="0px"
	 viewBox="0 0 639 124" style="enable-background:new 0 0 639 124;" xml:space="preserve">
<style type="text/css">
	.st0{fill:#EC1C24;}
	.st1{fill:#BA0F1C;}
</style>
<g>
	<g>
		<polygon class="st0" points="42.5,83.8 0,83.8 55.8,0.3 131.8,0.3 131.8,36.7 73.7,36.7 		"/>
		<polygon class="st0" points="174.8,36.9 131.8,36.9 100.4,83.8 42.5,83.8 42.5,120.5 119.1,120.5 		"/>
	</g>
	<g>
		<path class="st1" d="M222,103.4h30v18.8h-49.1V36.9H222V103.4z"/>
		<path class="st1" d="M300.4,123.8c-12.1,0-22.4-4.3-30.9-12.8c-8.5-8.5-12.7-19-12.7-31.5c0-12.5,4.2-23,12.7-31.5
			c8.5-8.5,18.8-12.8,30.9-12.8c12.1,0,22.4,4.3,30.9,12.8c8.5,8.5,12.7,19,12.7,31.5c0,12.5-4.2,23-12.7,31.5
			C322.8,119.6,312.5,123.8,300.4,123.8z M300.4,104.8c7,0,12.7-2.3,17.4-7.1c4.7-4.8,7.1-10.8,7.1-18.3s-2.4-13.5-7.1-18.3
			c-4.7-4.8-10.4-7.1-17.4-7.1c-7,0-12.8,2.3-17.5,7.1c-4.7,4.8-7,10.8-7,18.3s2.3,13.5,7,18.3C287.6,102.5,293.5,104.8,300.4,104.8
			z"/>
		<path class="st1" d="M394.9,123.8c-12.1,0-22.4-4.3-30.9-12.8c-8.5-8.5-12.7-19-12.7-31.5c0-12.5,4.2-23,12.7-31.5
			c8.5-8.5,18.8-12.8,30.9-12.8c12.1,0,22.4,4.3,30.9,12.8c8.5,8.5,12.7,19,12.7,31.5c0,12.5-4.2,23-12.7,31.5
			C417.3,119.6,407,123.8,394.9,123.8z M394.9,104.8c7,0,12.7-2.3,17.4-7.1c4.7-4.8,7.1-10.8,7.1-18.3s-2.4-13.5-7.1-18.3
			c-4.7-4.8-10.4-7.1-17.4-7.1c-7,0-12.8,2.3-17.5,7.1c-4.7,4.8-7,10.8-7,18.3s2.3,13.5,7,18.3C382.1,102.5,387.9,104.8,394.9,104.8
			z"/>
		<path class="st1" d="M481.1,36.9c8.3,0,15.2,2.8,20.9,8.5s8.5,12.5,8.5,20.7s-2.9,15-8.5,20.7c-5.6,5.7-12.6,8.5-20.9,8.5h-12.6
			v26.8h-19.2V36.9H481.1z M481.1,77.1c5.9,0,10.2-4.8,10.2-11s-4.3-11-10.2-11h-12.6v21.9H481.1z"/>
	</g>
	<g>
		<path class="st0" d="M517.6,123.8L510.8,99h6l4.3,17.4l4.8-17.4h4.6l4.8,17.4l4.3-17.4h6l-6.8,24.8h-6.5l-4-14.6l-4,14.6H517.6z"
			/>
		<path class="st0" d="M561.1,123.8l-1.2-3.9h-9.2l-1.2,3.9h-6.2l8.4-24.8h7.2l8.4,24.8H561.1z M552.3,114.6h5.8l-2.9-9.1
			L552.3,114.6z"/>
		<path class="st0" d="M575.1,118.4h8.9v5.5h-14.5V99h5.7V118.4z"/>
		<path class="st0" d="M592.1,118.4h8.9v5.5h-14.5V99h5.7V118.4z"/>
		<path class="st0" d="M609.2,118.4h9.9v5.5h-15.6V99h15.4v5.5h-9.8v4.1h8.9v5.4h-8.9V118.4z"/>
		<path class="st0" d="M639,99v5.5h-6.4v19.4h-5.7v-19.4h-6.4V99H639z"/>
	</g>
</g>
</svg>
