<?xml version="1.0" encoding="utf-8"?>
<!-- Generator: Adobe Illustrator 24.0.0, SVG Export Plug-In . SVG Version: 6.00 Build 0)  -->
<svg version="1.1" id="Layer_1" xmlns="http://www.w3.org/2000/svg" xmlns:xlink="http://www.w3.org/1999/xlink" x="0px" y="0px"
	 viewBox="0 0 488.5 115" style="enable-background:new 0 0 488.5 115;" xml:space="preserve">
<style type="text/css">
	.st0{fill:#FFFFFF;}
</style>
<g>
	<g>
		<path class="st0" d="M78.9,58.6c-2.3,0-4.6,0.1-6.9,0c-2.9-0.1-5.1,1-6.8,3.4c-4.4,6.2-13.4,6-17.4-0.2c-3-4.6-1.9-10.7,2.4-14.1
			c4.3-3.4,10.4-2.9,14.2,1.1c5.2,5.5,12.8,6.2,18.4,1.6c0.9-0.7,1.6-1.6,2.3-2.6c4.3-6.3,11.8-8.6,18.5-5.7
			c6.6,2.8,10.3,9.8,8.8,17c-1.4,7-7.8,12.2-15.2,11.8C83,70.4,73.3,81.8,71.9,92.8c-0.3,2-0.1,4-0.4,6c-1.1,8.5-8,13.8-16.8,13.1
			c-7.6-0.6-13.4-7.4-13.2-15.5c0.1-4.7-0.8-9.1-3.6-12.9c-5.4-7.5-12.4-12.4-22.1-12.5C7.3,71,0.7,64.6,0.6,56.3
			c-0.1-8.4,6.2-15,14.8-15.3c8.6-0.3,16-3.5,21.5-10.2c3.5-4.2,5-9.1,4.6-14.5C41,7.6,47.6,0.3,56.1,0c8.6-0.3,15.6,6.6,15.5,15.1
			c0,4.6-1.9,8.3-5.3,11.4c-0.9,0.8-1.5,0.9-2.4-0.1c-1.7-1.8-3.5-3.6-5.3-5.3c-1.7-1.7-3.2-1.7-4.9,0
			C43.1,31.9,32.3,42.7,21.5,53.5c-1.9,1.9-1.8,3.6,0,5.5c10.7,10.7,21.4,21.4,32.1,32.1c1.9,1.9,3.4,1.9,5.3,0
			c9.8-9.7,19.5-19.5,29.3-29.3c0.6-0.6,1.5-1.2,1.1-2.3c-0.4-1.1-1.4-0.9-2.3-0.9C84.3,58.6,81.6,58.6,78.9,58.6z"/>
		<path class="st0" d="M183,56.4c5,0,10.1,0,15.1,0c1.3,0,1.6,0.4,1.7,1.6c1.2,13.5-5,22.6-18.7,26.7c-10.1,3-20.4,3.2-30.5-0.2
			c-9.4-3.2-16.2-9.2-18.8-19.2c-3.4-13.2,1.7-25.6,13.8-32c15.1-8.1,30.3-7.5,45.1,1.3c4.1,2.4,4,2.6,0.9,6.1
			c-1.2,1.4-2.3,3.5-3.9,4c-1.6,0.5-3.1-1.6-4.7-2.5c-9.7-5.1-19.7-6.1-29.7-1.3c-5.9,2.9-10.2,7.4-10.9,14.2
			c-1.1,9.7,3.7,17.1,13.1,20c9,2.8,18,2.3,26.6-1.7c2.6-1.2,4.8-3.1,6-5.9c0.6-1.4,0.4-1.9-1.3-1.9c-6.4,0.1-12.8,0-19.1,0.1
			c-1.3,0-1.7-0.3-1.6-1.6c0.1-2,0.1-4,0-6c-0.1-1.3,0.3-1.8,1.7-1.7C172.9,56.5,178,56.4,183,56.4z"/>
		<path class="st0" d="M247.6,27.8c8.3,0.2,16.7,2.8,24.2,8.3c1,0.7,1.4,1.2,0.4,2.4c-1.6,2-3,4.1-4.4,6.3c-0.7,1-1.1,1.2-2.2,0.4
			c-6.8-5.4-14.6-7.9-23.3-6.8c-7.4,0.9-13.4,4.2-17.1,10.9c-4.2,7.7-1.8,17.8,5.7,22.6c10.2,6.6,20.8,6.6,31.3,0.6
			c1.5-0.9,3-1.9,4.4-2.9c0.8-0.6,1.2-0.6,1.8,0.3c1.2,2.1,2.4,4.2,3.7,6.3c0.7,1.1,0.5,1.6-0.5,2.3c-5.6,3.8-11.6,6.7-18.3,7.8
			c-9.6,1.6-18.8,0.5-27.2-4.7c-19.1-11.9-18.3-37.8,1.4-48.8C233.6,29.3,239.9,27.8,247.6,27.8z"/>
		<path class="st0" d="M295.7,49.5c3.4-3.3,7-5.5,11.2-6.7c6.2-1.7,12.3-1.8,18.1,1.3c6.3,3.4,9,9,9.1,15.9c0.1,8.1,0,16.2,0,24.2
			c0,1.2-0.3,1.7-1.6,1.7c-2.3-0.1-4.6-0.1-6.9,0c-1.4,0.1-1.7-0.4-1.7-1.7c0.1-6.7-0.3-13.5,0.1-20.2c0.6-9.1-7.2-13.9-14.3-13.4
			c-6.4,0.5-14.6,6.2-14,14.7c0.2,2.2,0,4.4,0,6.6c0,4.2,0,8.4,0,12.6c0,1.2-0.3,1.6-1.5,1.5c-2.4-0.1-4.9-0.1-7.3,0
			c-1,0-1.4-0.2-1.4-1.3c0-19.4,0-38.8,0-58.1c0-1.1,0.4-1.3,1.4-1.3c2.4,0,4.7,0.1,7.1,0c1.3-0.1,1.6,0.4,1.6,1.6
			c-0.1,6.9,0,13.7,0,20.6C295.7,48,295.7,48.6,295.7,49.5z"/>
		<path class="st0" d="M450,50.3c2-2,3.7-3.7,5.7-5c7.8-5,19.2-4.7,26.1,0.6c4.7,3.6,6.6,8.6,6.7,14.3c0.1,8.1,0,16.2,0.1,24.2
			c0,1.2-0.4,1.6-1.5,1.5c-2.4-0.1-4.7-0.1-7.1,0c-1.3,0.1-1.6-0.4-1.6-1.6c0.1-7-0.2-14,0.1-21c0.2-6.4-4.1-11.2-10.2-12.2
			c-6.4-1.1-11.9,0.9-15.9,6.3c-1.4,1.9-2.1,4-2.1,6.4c0.1,6.8,0,13.6,0.1,20.4c0,1.4-0.4,1.8-1.7,1.7c-2.4-0.1-4.7-0.1-7.1,0
			c-0.9,0-1.4-0.1-1.4-1.3c0-13.6,0-27.2,0-40.8c0-1,0.4-1.2,1.3-1.2c2.5,0,5,0.1,7.5,0c1,0,1.2,0.4,1.2,1.3
			C450,46,450,47.9,450,50.3z"/>
		<path class="st0" d="M416.1,64.3c0-6.7,0-13.4,0-20c0-1.2,0.2-1.6,1.5-1.6c2.5,0.1,5,0.1,7.5,0c0.9,0,1.3,0.3,1.3,1.2
			c0,13.6,0,27.2,0,40.8c0,1.1-0.4,1.3-1.4,1.3c-2.4-0.1-4.9-0.1-7.3,0c-1.2,0-1.5-0.3-1.5-1.5C416.2,77.7,416.1,71,416.1,64.3z"/>
		<path class="st0" d="M421.1,38c-4.2,0-6.4-2-6.4-5.7c0-3.7,2.4-6,6.2-6.1c4.2,0,6.6,2.1,6.6,5.8C427.6,35.8,425.2,38,421.1,38z"/>
		<path class="st0" d="M402.1,55.6c0-3.8,0-7.7,0-11.5c0-1.1-0.3-1.5-1.4-1.4c-2.5,0.1-5,0.1-7.5,0c-0.9,0-1.3,0.3-1.3,1.2
			c0.1,1.4,0,2.7,0,4.2c-0.4-0.2-0.6-0.3-0.7-0.4c-10.6-7.4-21.9-8.1-33.2-2.4c-7.9,3.9-11.6,10.8-11.3,19.7
			c0.2,8.7,4.2,15.2,12,18.9c8.7,4.2,17.6,3.9,26.4,0c2.4-1.1,4.5-2.7,6.8-4.7c0,2,0.1,3.6,0,5.3c-0.1,1.2,0.2,1.6,1.5,1.6
			c2.3-0.1,4.6-0.1,6.9,0c1.4,0.1,1.8-0.4,1.8-1.8C402.1,74.7,402.1,65.1,402.1,55.6z M383.4,76.2c-2.8,1.1-5.7,1.5-8.7,1.5
			c-5.7-0.1-11-1.3-14.9-5.9c-4.1-4.8-3.7-11.6,0.8-16c2.6-2.5,5.7-3.9,9.2-4.5c4.6-0.8,9.1-0.7,13.4,1c5.7,2.2,9.2,6.7,9.2,11.9
			C392.4,69.5,388.9,74,383.4,76.2z"/>
	</g>
	<g>
		<path class="st0" d="M386.1,92.5l-7.1,21.8h-6.6l-4.2-13.3l-4.4,13.3h-6.6l-7.1-21.8h6.4l4.4,13.9l4.6-13.9h5.7l4.4,14.1l4.6-14.1
			H386.1z"/>
		<path class="st0" d="M402.2,110h-9.2l-1.7,4.2h-6.3l9.6-21.8h6.1l9.7,21.8h-6.4L402.2,110z M400.4,105.5l-2.8-7l-2.8,7H400.4z"/>
		<path class="st0" d="M412,92.5h6.2v16.9h10.4v4.9H412V92.5z"/>
		<path class="st0" d="M431.1,92.5h6.2v16.9h10.4v4.9h-16.6V92.5z"/>
		<path class="st0" d="M467.6,109.5v4.8h-17.5V92.5h17.1v4.8h-11v3.7h9.7v4.6h-9.7v4H467.6z"/>
		<path class="st0" d="M475.7,97.4H469v-4.9h19.5v4.9h-6.7v16.9h-6.2V97.4z"/>
	</g>
</g>
</svg>
