<?xml version="1.0" encoding="utf-8"?>
<!-- Generator: Adobe Illustrator 24.0.0, SVG Export Plug-In . SVG Version: 6.00 Build 0)  -->
<svg version="1.1" id="Layer_1" xmlns="http://www.w3.org/2000/svg" xmlns:xlink="http://www.w3.org/1999/xlink" x="0px" y="0px"
	 viewBox="0 0 521 121.9" style="enable-background:new 0 0 521 121.9;" xml:space="preserve">
<style type="text/css">
	.st0{fill:#3A1EE2;}
</style>
<g>
	<g>
		<path class="st0" d="M83.6,63.2c-2.5,0-4.9,0.1-7.4,0c-3.1-0.1-5.4,1.1-7.2,3.7c-4.7,6.6-14.3,6.4-18.6-0.3
			c-3.2-4.9-2.1-11.5,2.5-15C57.5,48,64,48.5,68,52.8c5.6,5.9,13.6,6.6,19.6,1.8c1-0.8,1.7-1.8,2.4-2.8c4.6-6.7,12.6-9.2,19.8-6.1
			c7.1,3,11,10.5,9.4,18.1c-1.5,7.5-8.3,13-16.2,12.6c-15.1-0.7-25.4,11.5-26.9,23.3c-0.3,2.1-0.1,4.3-0.4,6.4
			c-1.2,9-8.6,14.8-17.9,14c-8.1-0.7-14.3-7.9-14.1-16.5c0.2-5-0.8-9.7-3.8-13.8c-5.8-8-13.2-13.3-23.6-13.3
			C7.2,76.5,0.1,69.6,0,60.7c-0.1-8.9,6.7-16,15.8-16.3c9.2-0.4,17-3.7,23-10.9c3.7-4.5,5.4-9.7,5-15.5C43.1,8.8,50.2,0.9,59.3,0.6
			c9.1-0.3,16.6,7,16.6,16.2c0,4.9-2,8.9-5.6,12.1c-0.9,0.8-1.6,1-2.5-0.1c-1.8-2-3.7-3.8-5.6-5.7c-1.9-1.8-3.4-1.8-5.2,0
			c-11.5,11.5-23,23-34.6,34.5c-2,2-2,3.9,0,5.9c11.4,11.4,22.8,22.8,34.3,34.3c2.1,2.1,3.6,2.1,5.7,0
			c10.4-10.4,20.8-20.8,31.3-31.2c0.7-0.7,1.6-1.3,1.1-2.5c-0.4-1.2-1.5-1-2.5-1C89.3,63.2,86.5,63.2,83.6,63.2z"/>
		<path class="st0" d="M194.7,60.8c5.4,0,10.8,0,16.2,0c1.3,0,1.7,0.4,1.9,1.7c1.3,14.4-5.3,24.1-20,28.5
			c-10.8,3.2-21.8,3.4-32.5-0.2c-10-3.4-17.3-9.9-20-20.4c-3.6-14,1.9-27.3,14.7-34.2c16.1-8.6,32.3-8,48.1,1.3
			c4.4,2.6,4.3,2.8,1,6.5c-1.3,1.5-2.5,3.7-4.1,4.3c-1.7,0.6-3.3-1.8-5-2.7c-10.4-5.4-21-6.5-31.7-1.3c-6.3,3-10.8,7.9-11.7,15.2
			c-1.2,10.4,4,18.3,14,21.4c9.6,3,19.2,2.5,28.4-1.8c2.8-1.3,5.1-3.3,6.4-6.2c0.6-1.5,0.4-2.1-1.4-2c-6.8,0.1-13.6,0-20.4,0.1
			c-1.4,0-1.8-0.3-1.7-1.7c0.1-2.1,0.1-4.3,0-6.4c-0.1-1.4,0.3-1.9,1.8-1.9C184,60.9,189.4,60.8,194.7,60.8z"/>
		<path class="st0" d="M263.7,30.3c8.8,0.2,17.8,3,25.9,8.8c1.1,0.8,1.5,1.3,0.5,2.6c-1.7,2.1-3.2,4.4-4.7,6.7
			c-0.7,1.1-1.2,1.3-2.3,0.4c-7.3-5.8-15.6-8.4-24.9-7.3c-7.9,1-14.4,4.5-18.3,11.7c-4.5,8.2-1.9,19,6.1,24.1
			c10.9,7,22.2,7.1,33.4,0.6c1.6-0.9,3.2-2,4.7-3.1c0.9-0.6,1.3-0.7,1.9,0.3c1.3,2.3,2.6,4.5,4,6.7c0.7,1.1,0.5,1.7-0.5,2.5
			c-6,4.1-12.4,7.1-19.5,8.3c-10.2,1.7-20.1,0.5-29-5.1c-20.4-12.7-19.5-40.4,1.5-52.1C248.7,31.9,255.5,30.3,263.7,30.3z"/>
		<path class="st0" d="M315.1,53.5c3.6-3.5,7.4-5.9,11.9-7.1c6.6-1.8,13.2-1.9,19.3,1.4c6.7,3.6,9.6,9.6,9.7,17
			c0.1,8.6,0,17.3,0,25.9c0,1.3-0.3,1.8-1.7,1.8c-2.5-0.1-4.9-0.1-7.4,0c-1.5,0.1-1.9-0.4-1.9-1.9c0.1-7.2-0.3-14.4,0.1-21.6
			c0.6-9.7-7.7-14.8-15.3-14.3c-6.9,0.5-15.6,6.6-14.9,15.7c0.2,2.3,0,4.7,0,7c0,4.5,0,9,0,13.4c0,1.3-0.3,1.7-1.6,1.6
			c-2.6-0.1-5.2-0.1-7.8,0c-1.1,0-1.5-0.3-1.5-1.4c0-20.7,0-41.4,0-62.1c0-1.2,0.5-1.4,1.5-1.4c2.5,0,5.1,0.1,7.6,0
			c1.4-0.1,1.8,0.4,1.7,1.8c-0.1,7.3,0,14.7,0,22C315.1,51.9,315.1,52.5,315.1,53.5z"/>
		<path class="st0" d="M479.8,54.3c2.1-2.2,3.9-3.9,6.1-5.3c8.4-5.3,20.5-5.1,27.9,0.6c5,3.9,7.1,9.2,7.1,15.3
			c0.1,8.6,0,17.3,0.1,25.9c0,1.3-0.4,1.7-1.6,1.6c-2.5-0.1-5.1-0.1-7.6,0c-1.4,0.1-1.7-0.4-1.7-1.8c0.1-7.5-0.2-14.9,0.1-22.4
			c0.2-6.8-4.4-12-10.9-13c-6.9-1.1-12.7,1-17,6.7c-1.5,2-2.3,4.3-2.3,6.9c0.1,7.3,0,14.5,0.1,21.8c0,1.5-0.4,1.9-1.8,1.8
			c-2.5-0.1-5.1-0.1-7.6,0c-1,0-1.5-0.1-1.5-1.3c0-14.5,0-29.1,0-43.6c0-1.1,0.4-1.3,1.4-1.3c2.7,0,5.3,0.1,8,0
			c1.1,0,1.3,0.4,1.3,1.4C479.7,49.7,479.8,51.8,479.8,54.3z"/>
		<path class="st0" d="M443.6,69.2c0-7.1,0-14.3,0-21.4c0-1.2,0.2-1.7,1.6-1.7c2.7,0.1,5.3,0.1,8,0c1,0,1.3,0.3,1.3,1.3
			c0,14.5,0,29,0,43.5c0,1.2-0.5,1.4-1.5,1.4c-2.6-0.1-5.2-0.1-7.8,0c-1.3,0-1.6-0.3-1.6-1.6C443.6,83.6,443.6,76.4,443.6,69.2z"/>
		<path class="st0" d="M448.9,41.2c-4.4,0-6.9-2.1-6.9-6.1c0-3.9,2.6-6.4,6.7-6.5c4.5-0.1,7.1,2.2,7.1,6.2
			C455.8,38.9,453.3,41.2,448.9,41.2z"/>
		<path class="st0" d="M428.6,60c0-4.1,0-8.2,0-12.3c0-1.2-0.3-1.6-1.5-1.5c-2.7,0.1-5.3,0.1-8,0c-1,0-1.4,0.3-1.3,1.3
			c0.1,1.4,0,2.9,0,4.5c-0.4-0.2-0.6-0.3-0.7-0.4c-11.3-7.9-23.3-8.6-35.5-2.6c-8.4,4.1-12.3,11.5-12.1,21
			c0.2,9.3,4.4,16.2,12.8,20.2c9.3,4.4,18.8,4.2,28.2,0c2.6-1.2,4.8-2.9,7.3-5c0,2.2,0.1,3.9,0,5.6c-0.1,1.2,0.3,1.7,1.6,1.7
			c2.5-0.1,4.9-0.1,7.4,0c1.5,0.1,1.9-0.4,1.9-1.9C428.6,80.3,428.6,70.1,428.6,60z M408.6,82c-3,1.2-6.1,1.6-9.3,1.7
			c-6.1-0.1-11.7-1.4-15.9-6.3c-4.4-5.1-3.9-12.3,0.9-17.1c2.7-2.7,6.1-4.2,9.8-4.8c4.9-0.8,9.7-0.7,14.4,1.1
			c6.1,2.3,9.8,7.1,9.8,12.7C418.2,74.8,414.6,79.6,408.6,82z"/>
	</g>
	<g>
		<path class="st0" d="M411.5,99.3l-7.6,23.3h-7.1l-4.5-14.2l-4.7,14.2h-7.1l-7.6-23.3h6.8l4.7,14.9l4.9-14.9h6.1l4.7,15l4.9-15
			H411.5z"/>
		<path class="st0" d="M428.7,118.1h-9.9l-1.8,4.5h-6.7l10.3-23.3h6.5l10.3,23.3h-6.9L428.7,118.1z M426.7,113.2l-3-7.5l-3,7.5
			H426.7z"/>
		<path class="st0" d="M439.2,99.3h6.6v18.1h11.1v5.2h-17.7V99.3z"/>
		<path class="st0" d="M459.5,99.3h6.6v18.1h11.1v5.2h-17.7V99.3z"/>
		<path class="st0" d="M498.5,117.5v5.1h-18.7V99.3h18.3v5.1h-11.7v3.9h10.4v4.9h-10.4v4.3H498.5z"/>
		<path class="st0" d="M507.2,104.6H500v-5.2h20.9v5.2h-7.1v18.1h-6.6V104.6z"/>
	</g>
</g>
</svg>
