<svg id="Layer_1" data-name="Layer 1" xmlns="http://www.w3.org/2000/svg" xmlns:xlink="http://www.w3.org/1999/xlink" viewBox="0 0 430.36 419.66"><defs><style>.cls-1{fill:#fefefe;}.cls-2{fill:#e1e5ef;}.cls-3{fill:url(#linear-gradient);}.cls-4{fill:url(#linear-gradient-2);}.cls-5{fill:#a8aec0;}.cls-6{fill:#d1d5e3;}.cls-29,.cls-30,.cls-31,.cls-7{fill:none;}.cls-7{stroke:#1872a4;stroke-width:5px;}.cls-30,.cls-31,.cls-7{stroke-linecap:round;}.cls-13,.cls-8{fill:#fff;}.cls-9{fill:#1896a4;}.cls-10{fill:#00c0a5;}.cls-11{fill:#161440;}.cls-12{fill:#323166;}.cls-13{opacity:0.3;}.cls-13,.cls-25,.cls-26{isolation:isolate;}.cls-14{fill:url(#linear-gradient-3);}.cls-15{fill:url(#linear-gradient-4);}.cls-16{fill:#f9f9f9;}.cls-17{fill:url(#linear-gradient-5);}.cls-18{fill:url(#linear-gradient-6);}.cls-19{fill:#b3bed7;}.cls-20{fill:url(#linear-gradient-7);}.cls-21{fill:#18286c;}.cls-22{fill:#22306b;}.cls-23{fill:#57f;}.cls-24{fill:#2841a6;}.cls-25{fill:#02bad3;opacity:0.45;}.cls-26{fill:#0c4180;opacity:0.5;}.cls-27{fill:#008bfe;}.cls-28{fill:#36aeff;}.cls-29{stroke:#36aeff;stroke-miterlimit:10;stroke-width:0.5px;}.cls-30,.cls-31{stroke:#b2c1dd;}.cls-30{stroke-width:15px;}.cls-31{stroke-width:15px;}.cls-32{fill:url(#linear-gradient-8);}</style><linearGradient id="linear-gradient" x1="-1948.34" y1="72.59" x2="-1948.26" y2="72.43" gradientTransform="matrix(98.53, 17.37, 8.07, -45.74, 191596.63, 37288.1)" gradientUnits="userSpaceOnUse"><stop offset="0" stop-color="#dce1f1" stop-opacity="0"/><stop offset="1" stop-color="#6075a8"/></linearGradient><linearGradient id="linear-gradient-2" x1="-1962.78" y1="76.84" x2="-1962.3" y2="76.25" gradientTransform="matrix(43.29, 0, 0, -49.68, 85003.74, 3952.88)" xlink:href="#linear-gradient"/><linearGradient id="linear-gradient-3" x1="-1978.08" y1="76.79" x2="-1978.08" y2="75.96" gradientTransform="matrix(26.57, 0, 0, -59.03, 52648.11, 4791.33)" gradientUnits="userSpaceOnUse"><stop offset="0" stop-color="#c6cfe4" stop-opacity="0"/><stop offset="1" stop-color="#94a1c5"/></linearGradient><linearGradient id="linear-gradient-4" x1="-1967.09" y1="77.03" x2="-1967.9" y2="77.17" gradientTransform="matrix(36.25, 0, 0, -16.43, 71402.38, 1499.01)" gradientUnits="userSpaceOnUse"><stop offset="0" stop-color="#d8dff0" stop-opacity="0.09"/><stop offset="1" stop-color="#afbcdc"/></linearGradient><linearGradient id="linear-gradient-5" x1="-1551.46" y1="-861.73" x2="-1550.96" y2="-862.12" gradientTransform="matrix(30.57, 12.35, 11.17, -27.65, 57320.99, -4569.14)" xlink:href="#linear-gradient-4"/><linearGradient id="linear-gradient-6" x1="689.62" y1="-1076.6" x2="690.46" y2="-1076.9" gradientTransform="matrix(14.74, 2.92, 4.9, 23.13, -4854.47, 23065.13)" xlink:href="#linear-gradient-4"/><linearGradient id="linear-gradient-7" x1="-1974.38" y1="76.75" x2="-1974.36" y2="75.72" gradientTransform="matrix(29.26, 0, 0, -240.33, 57930.42, 18536.63)" xlink:href="#linear-gradient-4"/><linearGradient id="linear-gradient-8" x1="1177.55" y1="377.04" x2="1177.89" y2="377.33" gradientTransform="matrix(-0.09, 19.44, -18.43, -1.9, 7206.33, -22114.18)" gradientUnits="userSpaceOnUse"><stop offset="0" stop-color="#5452d7" stop-opacity="0"/><stop offset="1" stop-color="#7e7d9d"/></linearGradient></defs><title>aaa</title><path class="cls-1" d="M141,82.83q7.09,24.21,5.17,58.35c-1.92,34.14-10.08,32.62-9.06,47.15,2.48,5.59,10.7,18.87,15.11,40.23s7.24,20,5.63,91.75c0,0-.31-.24,3,1.1.7.29,1.91.87,3.61,1.74q2.31-35.89,1.71-56.07c-.6-20.17-3.66-33.4-6.7-50.62A280,280,0,0,1,157,186.2a138,138,0,0,1,.89-19.1c.67-5.12,1.8-10.37,2.68-16.66.67-4.78,1.14-10.15,1.51-16.54a71.44,71.44,0,0,0-.5-17.1,55.93,55.93,0,0,0-5.41-16Q152.14,93.06,141,82.83Z"/><path class="cls-1" d="M126,322.53c-5.25-21.86-9.21-44-16.45-65.41-.81-2.38-2-4.64-2.75-7-3.59-11.27-11.68-16.17-23.06-16.59a3,3,0,0,1-1.09-.5,2.58,2.58,0,0,0-.33-.76c-1.15-1.47.91-4.38-1.9-4.93-3.33-.66-6.63-.33-9.45,2s-3.37,5.67-4.92,8.58c-1,6.35,3.18,10.28,6.87,14.41,2.18,10.25-6,20.91-16.25,21.21-2.91.09-5.83,0-8.75,0-2.41,0-3.29-1.6-3.79-3.61-5.44-5.1-11.66-9.2-17.55-13.74-.41-1.25.46-1.92,1.33-2.24,3.49-1.31,3.25-3.67,2-6.43a24,24,0,0,0-3.52-5.67c-2.31-2.78-5.15-3.71-8.57-2.11-1.25.58-2.44,1.49-3.89.54-2.61-9.59-.51-18,5.53-25.91,8.2-10.72,18.26-19.56,27.92-28.82,1.78-1.51,3.69-.79,5.58-.32a229.38,229.38,0,0,0,25.43,5.25c13.71,1.76,27.3.78,40.9-1.23,5.91-.88,11.64-3.08,17.75-2.58q.65.29,1.32.54c4.2,3.63,5.27,9,7.59,13.71,2.84,5.69,5.27,11.66,6.13,18.1.17,1.26,1.05,2.26,1.5,3.43,2.36,11.07,5.24,22,6.33,33.35a99.23,99.23,0,0,1,0,14.63c-.47,9.63-.07,19.29-.27,28.93-.07,3.41,1.07,6.62,1.09,10a55.12,55.12,0,0,0-.49,6.67c-.13,1.89-.51,3.62-2.51,4.43a6.12,6.12,0,0,1-4.48.15c-7.55-2.21-14.9-1-22.12,1.57C129.49,322.77,127.86,323.57,126,322.53Z"/><path class="cls-2" d="M58.65,80.39q-12.13,2.79-35.57,30c-8.62,10-31.84,13.51-19.39,67.81.29,1.28,1.45,2.4,3.48,3.34q14.35-3.37,17.29-3.38c7,0-.24-20.27,7.1-27.92s25.35-21,33.89-9.06,90.49,10.62,94.29-6.34,30.29,4.1,47.07,0c21.64-5.3,39.93-17.93,41.65-19.28,6.55-5.17-5.69-20-5.69-20s-24,10.66-38.65,6.55c-17.49-4.92-28.35-24.7-44.38-31.77a86.69,86.69,0,0,0-17-5.52q-26.09-5.51-84.07,15.56Z"/><path class="cls-3" d="M156.86,107.39q29.91,14.43,48.95,14.42c19,0,45.58-12.94,46-15.26,0,0,1.35,2,6.81,0-3.4,3.19-7.69,6.09-10.32,9-1.49,1.63-19.24,11.4-23.39,13.08-11.05,4.46-19.09,7.62-26.18,6.55-.92-.14-1.9-.21-2.85-.4-2.2-.46-4.19-.8-5.68-1.24-11.61-3.48-20.9-6.77-25.83-4.77q-2.73,1.11-7.33,7.07Z"/><path class="cls-4" d="M56.57,127.91Q20.83,131,18.2,145.59a87.07,87.07,0,0,0-.47,28.79q7.1-.18,8.4,2.88c.57,1.35,1.82-1.58,1.69-6.43-.06-2.34,0-4.21,0-6.1.16-5.42.7-9.44,1.65-11.33a12,12,0,0,1,2.33-3.51c5.94-6,16.76-13.37,21.42-12.6Q65,137.13,56.57,127.91Z"/><path class="cls-5" d="M57.2,79.84c-1.34,2.06-1.37,3.78-.07,5.13a18,18,0,0,0,5.31,2.87A59.64,59.64,0,0,0,77.26,90.6c15.36,1,36.69-2.27,51.65-18.91q2-2.52-.17-6.89L96.91,80.89l-39.71-1Z"/><path class="cls-6" d="M56.24,81.84a43.46,43.46,0,0,0,19.41,5.67,93.5,93.5,0,0,0,26.75-3.35q18.54-5.52,27-17.82a5,5,0,0,1,.36,1.18c0,.29-7.85,12.13-27,17.91a91.86,91.86,0,0,1-27,3.21c-10.19-.33-19.7-5.48-19.61-6.08A2.76,2.76,0,0,1,56.24,81.84Z"/><path class="cls-7" d="M51.86,78.09q-21.28-4.62-27-18.29c-5.73-13.68,4.21-20.34,6.93-20.92"/><path class="cls-8" d="M94.07,83.61c26-5.52,45.45-19.59,39.9-45.7a48.08,48.08,0,1,0-94.06,20C45.46,84,68.1,89.13,94.07,83.61Z"/><path class="cls-9" d="M38.69,52.42c4,.84,1.51-7.11,3-14.17s6.79-12.5,2.83-13.34-11,5-12.54,12,2.75,14.63,6.7,15.48Z"/><path class="cls-10" d="M38.79,46c2.63-.26,1.83-4.09,3.68-10.33s5.82-10.32,2.37-11.31-9,3.79-10.5,9.11S36.15,46.26,38.79,46Z"/><path class="cls-6" d="M93.63,81.88c20.34-4.32,36.11-18.72,31-42.75S97.74,3.76,77.39,8.08,42.61,31.67,47.72,55.7,73.28,86.21,93.63,81.88Z"/><path class="cls-11" d="M93.45,80.14c20.34-4.32,36.08-18.82,30.92-43.1S96.79,5.77,76.45,10.1s-34.15,19.23-29,43.52,25.64,30.85,46,26.52Z"/><path class="cls-12" d="M121.85,41.36c-.78-3.32-2.77-.23-4.48,2.59-2.47,4-4.94,9.74-16,18.14-12.78,9.73-26.84,7.67-32.83,8.72-2.3.4-3.83,2.09-2.36,4.3s7.45,3,15,2.81c0,0,16.14,0,27.54-7.59C119.21,63.38,123.85,49.83,121.85,41.36Z"/><ellipse class="cls-12" cx="57.12" cy="38.45" rx="2.62" ry="2.64" transform="translate(-6.75 12.72) rotate(-12)"/><ellipse class="cls-12" cx="65.34" cy="29.62" rx="6.12" ry="6.15" transform="translate(-4.73 14.23) rotate(-12)"/><path class="cls-7" d="M129.29,16.62q22-2.31,16.25,21.44c-5.71,23.75-14.06,25.21-14.06,25.21"/><path class="cls-9" d="M129.51,31c-3.08,1.85-3.73-6.23-7.44-12.41s-10.09-9.85-7-11.7,11.11,1.65,14.82,7.84,2.7,14.42-.37,16.27Z"/><path class="cls-10" d="M128.33,25.73c-2.59.57-3-3.32-6.69-8.68s-8.71-8-5.73-10,9.7.82,12.79,5.42S130.92,25.16,128.33,25.73Z"/><path class="cls-13" d="M116.74,6.66q3.47-1.23,8.2,1.88,7.11,4.7,5.28,14.57-.21-8.65-5.58-12.87C121.66,7.9,119,6.71,116.74,6.66Z"/><path class="cls-2" d="M73.55,253.68c1.37,1,2.87,3.5,9.88,9.21,4.08,3.31,10.43,4.14,11.29,8.68,1.73,9.08-3.29,25.48-9.32,31.41s-13.71,5.57-15.71.17c-1.73-4.68,1.19-10.58-5-15.88-6.62-5.72-11-9.31-16.39-13.66,16.62,2.76,24.78-3.48,25.2-19.93Z"/><path class="cls-14" d="M68.62,248.36Q79.33,272.17,81,280.59c2.27,11.58-1.44,19.17-2.81,20.71-4,4.4-9.24.88-7.55,3.53a6.39,6.39,0,0,0,4,2.4c1.73.34,6.26.6,10.66-4.06,4.2-4.44,5.88-8.67,7.43-14.19,3.42-12.11,3.77-18.62-1.74-21.83-.65-.38-1.78-1-3.41-1.8q-2.94-1.12-7.6-5.5T68.62,248.36Z"/><path class="cls-15" d="M65.7,238.16q-.72-6.37,3.45-10.35c3.11-3,17.93-5.11,26.11,3.89q5.86,6.45,6.58,10-3.51-4.32-7.13-5.44c-5.4-1.65-10.09-2.81-14.34-3q-11.52-.4-14.67,4.9Z"/><path class="cls-2" d="M164.17,326.46c-.28,4.38-2.67,22.76-2.67,33,0,7.4,12.83,18.67,3.9,24.29s-16.24,5.12-21.55,5.12-10.54-4.4-11.51-10.18c-.92-5.43,3-10,2.31-14.32-.48-2.91-7-31.78-8.57-39.17-1.06-5,8.51-5.11,18-5.11,8.14,0,20.37,2.41,20.12,6.39Z"/><path class="cls-10" d="M125.56,322.79A37.22,37.22,0,0,1,146.05,318a43.34,43.34,0,0,1,18.37,5.14l-.31,3.87a47.34,47.34,0,0,0-18.06-5.65q-8.62-.69-19.71,4.62l-.78-3.2Z"/><path class="cls-16" d="M252.07,113.89c6-1.74,31.16-12.07,34-15.75,1.18-1.51-.07-4.75-4-3.66a77,77,0,0,1-7.62,1.46c-4.18.7-9.85,2.38-9.84,0s9.28-1.86,9.28-3.66-.45-2.63-5.49-2.21-15.68-1.19-25.62,5.7c-.91.62-1.85,6.31,1.36,11.09,2,2.93,1.89,8.73,7.91,7Z"/><path class="cls-17" d="M270,108.54c8.65-3.41,14.16-7.41,15.65-9.59,1.12-1.65.87-2.81.59-3.22s-.27-.41-1.66,0-9.74,7.42-19.65,9.35c-10.26,2-18.52,3.32-18.52,3.32,1.23,2,3.37,4.84,5.65,5.48.33-.06,13.63-3.64,17.94-5.34Z"/><path class="cls-10" d="M243.08,95.52a26.56,26.56,0,0,0,2.52,8.35,45.63,45.63,0,0,0,6.76,9.93s-.89.32-2.45,1c-.37.17-.9.45-1.57.83a71.72,71.72,0,0,1-6.09-10.24A73,73,0,0,1,239.43,97l3.65-1.47Z"/><path class="cls-8" d="M24.53,171.91a6.32,6.32,0,0,1,3.11,3.23c.72,1.76,5.91,3.74,6.72,5.86,1.89,4.92.64,6.49-1.56,9.21-4.93,6.12-17.33,7-19.38,6.77-4.91-.58-6.78-10.15-9.78-18.8C6.78,170.94,18.65,168.56,24.53,171.91Z"/><path class="cls-18" d="M23.31,172.4c1.57.89,3.71,1.3,4.3,2.75.72,1.76,5,2.39,6.72,5.87,2.36,4.7.64,6.48-1.56,9.2-.16.21-3.24,3.66-4.59,2.55-4.55-3.72-11.54-17.22-11.13-21.08C17.23,170.05,22.08,171.69,23.31,172.4Z"/><path class="cls-10" d="M2.89,174.56q3.29-4.65,11-5.6a23.46,23.46,0,0,1,14,2.3l-.39,3.53q-5.07-4.18-13.58-2.91t-10.2,6.28Z"/><ellipse class="cls-6" cx="80.75" cy="98.17" rx="1.36" ry="1.37"/><ellipse class="cls-6" cx="91.99" cy="100.08" rx="1.36" ry="1.37"/><ellipse class="cls-6" cx="103.66" cy="96.26" rx="1.36" ry="1.37"/><path class="cls-8" d="M158.17,165.14c-3,19.55.22,46.16,1.78,55.56q1.56,9.41-27.63-10.24l7-35.17,18.83-10.15Z"/><ellipse class="cls-19" cx="136.13" cy="270.48" rx="11" ry="15" transform="translate(-44.91 27.76) rotate(-10)"/><path class="cls-19" d="M30.54,255c4-1.46,1.83-7.61-2.1-13.05S21,235.37,16.6,238c-2.51,1.49-2.51,2.39-2,4.48a18.3,18.3,0,0,0,5.13,8c5.44,5.24,6.77,6,10.76,4.55Z"/><path class="cls-20" d="M141,82.83q7.09,24.21,5.17,58.35c-1.92,34.14-10.08,32.62-9.06,47.15,2.48,5.59,10.7,18.87,15.11,40.23s7.24,20,5.63,91.75c0,0-.31-.24,3,1.1.7.29,1.91.87,3.61,1.74q2.31-35.89,1.71-56.07c-.6-20.17-3.66-33.4-6.7-50.62A280,280,0,0,1,157,186.2a138,138,0,0,1,.89-19.1c.67-5.12,1.8-10.37,2.68-16.66.67-4.78,1.14-10.15,1.51-16.54a71.44,71.44,0,0,0-.5-17.1,55.93,55.93,0,0,0-5.41-16Q152.14,93.06,141,82.83Z"/><path class="cls-10" d="M46.72,272.25q10.74,2.28,17.92-2.73t7.69-17.12l1.26,1.33q0,12.54-7.38,17.75t-17.73,2.24l-1.76-1.47Z"/><path class="cls-13" d="M41.48,24.92a16.57,16.57,0,0,0-5.22,8.3,18.29,18.29,0,0,0,0,10.91Q32.75,38.31,34.5,33a14,14,0,0,1,7-8.1Z"/><path class="cls-21" d="M305.11,357.27q-37.51-.21-47,2.28c-.64,0,2.2,2.86,3.3,3.6s15.34-1.44,25.07,5Q296.16,374.52,305.11,357.27Z"/><path class="cls-21" d="M331.93,382.88q12.3,14.42,17.81,18.83c5.84,4.7,11.94,9,13.95,15.65l5.4.95q2.45.44-16.35-25.25l-10-8.62-10.82-1.56Z"/><path class="cls-22" d="M289.46,308.52q7.95,6.89,8.61,10.71c.43,2.54-2.38,2.65-8.44.3a18.71,18.71,0,0,0,.92-5.17,26.29,26.29,0,0,0-1.09-5.84Z"/><path class="cls-23" d="M388,419.38c-3.11-.15-5-.28-5.65-.39s-19.84-8.5-32.17-19S325.06,385.09,316,381.77a155.09,155.09,0,0,0-34.28-8.38q-7.67-1-23.18-1.75a3.74,3.74,0,0,1-3.19-2.26c15.48-4.62,32.1-1.69,32.22-12.91.1-8.6-4.75-14.09-6.74-14.45-3.59-.63-9.93,1-13.22-4.42s-3.13-7.37-2.5-10.92c.05-.24,1.25-.17,3.1-.25,3-.14,7.45-.5,9.71-1.84,3.64-2.16,7.66-8.63,16.52-7.06,0,0,1.84-6.77,0-10.41,0,0,8.32,2.56,11.26,14.25s3.55,25.78,24.15,34.24,38.34,9.73,46.9-7.74c0,0-.55,15.25-18.1,22.22,0,0,3.82,4.22,6.88,22.78q1.76,10.65,22.38,26.51Z"/><path class="cls-24" d="M294.38,317.29q2.53,2.31,0,8.74c-2.54,6.43-9.11,7.47-13.48,3.46s-1.49-2.27-4.37-4.22a69.13,69.13,0,0,0,5.88-4.32c.6-.47,1.65-1.24,3.15-2.29a24.06,24.06,0,0,1,4.51-1.37,18,18,0,0,1,4.31,0Z"/><path class="cls-25" d="M320,306.48a52.73,52.73,0,0,0-4.07-11.06c-8.53-14.93-33.69-28.81-56.34-13.13-11,7.63-22.72,22.42-13.08,48.46,1.1,3,.71-10.36,3.61-21.88a33.87,33.87,0,0,1,7.28-13.43c3.28-3.49,11.53-11.17,20.85-12.12,11-1.13,23.17,4.92,26,6.6q5.3,3.1,15.73,16.56Z"/><path class="cls-21" d="M310.78,347.31q2.45,2.26,16.33,4.71c13.87,2.45,19-3,29.14-1.26q10.11,1.78,43.4,22,11-13.59,26.85-7.14t-31.78-13.24L354.6,341.93,325,341l-13.82,4.23-.36,2.07Z"/><path class="cls-9" d="M309.67,343.63q34.57-13.5,50-5.79c15.47,7.71,29.43,8.35,39.37,6.94s8.06-.25,12.67,7.22,27.22,15,10.16,13.38-59.26-23.05-73.74-19.31q-14.48,3.76-37.13-.24l-1.37-2.2Z"/><circle class="cls-21" cx="309.34" cy="345.53" r="3"/><path class="cls-26" d="M312.1,344q11.85-3.35,13.13-3.33c.85,0,1,.54.53,1.58Zm.1.38a111.07,111.07,0,0,1,11.29,0c.84.16.35.51-1.45,1.06l-9.84-1.05Z"/><path class="cls-1" d="M49.34,178.22a158.67,158.67,0,0,0,2.45-34.54,20.58,20.58,0,0,0-1.06-6.53A4.36,4.36,0,0,1,49,133.92a53.37,53.37,0,0,1,2.54-25.71c1-2.59,1.86-5.25,4.23-7a3.3,3.3,0,0,1,1.27-.39c1.37-.06,2.19,1,3.26,1.6,2.45,1.33,5,1.87,7.42.13s1.78-4.34.93-6.75a11.58,11.58,0,0,0-1.23-3.53c-1-2.35-.61-4.15,2.37-4.5,5.27.91,10.59.66,15.9.83,9.45.29,18.19-2.24,26.62-6.17a10.26,10.26,0,0,1,2.76-1c2.53.41,2.56,2.2,2.16,4.1s-1.4,3.93-1.25,6.07c.5,3,2.62,4.13,5.3,4.44s4.64-.66,5.49-3.39c1.78-3.47,2.2-7.43,3.92-10.93.93-1.9,1.7-3.84,4-4.45,5.63,1.09,9.54,4.77,13.26,8.78,1.85,3.58,4.46,6.73,5.84,10.6.87,2.45,1,4.44-1.55,5.7-2.26,1.13-2.68,3-2.72,5.21-.16,8.94-.44,17.87-.7,26.79-.45,15.51-1.94,30.64-8.83,44.81a3.36,3.36,0,0,1-1.08,1c-4.18,2.58-9,2.81-13.65,3.62-10.85,1.9-21.71,3.88-32.78,3.72a144.89,144.89,0,0,1-39.11-6.17C51.66,180.88,49.86,180.34,49.34,178.22Z"/><path class="cls-10" d="M48.7,178.57q23,7.13,42.61,7.39T157,175.13l-.07,4.78v4q-45.6,10.65-65.66,10T46.87,186.1c.41-1.36.74-2.56,1-3.59S48.36,180.16,48.7,178.57Z"/><path class="cls-9" d="M137.78,179.49a10.19,10.19,0,0,1,.24,4.57,10.76,10.76,0,0,1-1,4.23l20.08-4.23v-9Z"/><circle class="cls-27" cx="95.06" cy="139.21" r="25.33"/><path class="cls-1" d="M98.45,156.38H81.86c0-2.28,0-4.55,0-6.83,0-.31.17-.26.36-.26H98a5.24,5.24,0,0,0,1.25-.1,2.59,2.59,0,0,0,2.12-2.25,5.15,5.15,0,0,0-.07-2.14,2.62,2.62,0,0,0-2.48-2c-.34,0-.69,0-1,0-3,0-6,.05-8.93,0a11.34,11.34,0,0,1-4.06-.85,7.66,7.66,0,0,1-4.65-5.34,15.21,15.21,0,0,1,.08-8.51,7.88,7.88,0,0,1,6.32-5.63,15.4,15.4,0,0,1,3.32-.34H105.4c.32,0,.4.08.4.4q0,3.16,0,6.33c0,.32-.09.38-.39.38H90.14a5.62,5.62,0,0,0-1.35.13,2.48,2.48,0,0,0-1.94,1.92,4.8,4.8,0,0,0,0,2.41,2.56,2.56,0,0,0,2.38,2,8.39,8.39,0,0,0,1,.06c2.94,0,5.88,0,8.82,0a11.5,11.5,0,0,1,4.44.92,7.63,7.63,0,0,1,4.5,5.22,15.39,15.39,0,0,1,0,8.38,7.9,7.9,0,0,1-6.31,5.81A15.81,15.81,0,0,1,98.45,156.38Z"/><circle class="cls-27" cx="270.55" cy="43.8" r="21.62"/><path class="cls-1" d="M273.44,58.47H259.28c0-1.94,0-3.88,0-5.82,0-.27.15-.23.31-.23h13.48a4.7,4.7,0,0,0,1.06-.09,2.2,2.2,0,0,0,1.81-1.92,4.19,4.19,0,0,0-.06-1.83,2.25,2.25,0,0,0-2.11-1.71c-.3,0-.59,0-.89,0-2.54,0-5.08,0-7.62,0a9.88,9.88,0,0,1-3.47-.73,6.55,6.55,0,0,1-4-4.56,13,13,0,0,1,.07-7.27,6.76,6.76,0,0,1,5.4-4.8,13.46,13.46,0,0,1,2.83-.29h13.27c.28,0,.35.07.35.34,0,1.8,0,3.61,0,5.41,0,.27-.09.32-.34.32h-13a4.45,4.45,0,0,0-1.15.12A2.11,2.11,0,0,0,263.54,37a4.11,4.11,0,0,0,0,2.06,2.2,2.2,0,0,0,2,1.73,8.12,8.12,0,0,0,.86,0c2.51,0,5,0,7.53,0a9.93,9.93,0,0,1,3.79.79A6.52,6.52,0,0,1,281.58,46a13.1,13.1,0,0,1,0,7.16,6.74,6.74,0,0,1-5.38,5A15,15,0,0,1,273.44,58.47Z"/><circle class="cls-28" cx="233.77" cy="50.42" r="2.33"/><path class="cls-29" d="M291,36.68c15.27,1.51,25.8,4.71,25.8,8.41,0,5.15-20.44,9.33-45.66,9.33s-45.67-4.18-45.67-9.33c0-3.59,9.91-6.71,24.45-8.27"/><path class="cls-29" d="M291.29,39.55c8.57,1.09,14.15,2.86,14.15,4.87,0,3.31-15.22,6-34,6s-34-2.69-34-6c0-1.84,4.71-3.49,12.11-4.59"/><circle class="cls-28" cx="297.44" cy="48.42" r="2"/><path class="cls-12" d="M63.36,105.81a7.5,7.5,0,1,0-7.46-7.5A7.48,7.48,0,0,0,63.36,105.81Z"/><path class="cls-30" d="M62.44,96.26q-20.4-25.85-28-23.8c-7.57,2,3.64,17.71,5.42,19.35"/><path class="cls-2" d="M35.08,97.28c2.61-2.93,4.46-4.88,5.53-5.85,3-2.76,4.82-3.8,5.18-3.87l2.85,3.32q-5.28,9.81-5.79,10.09t-4.57-1.28Z"/><ellipse class="cls-12" cx="121.3" cy="90.7" rx="7.46" ry="7.5"/><path class="cls-31" d="M121.84,88.38q15.49-42,26.41-43.39c10.9-1.35,6.52,20.22,5.76,22.52"/><path class="cls-32" d="M148.31,52.25q10.49-7.51,11.32,1.07a40.89,40.89,0,0,1-2.12,16.42c-.65-.15-3.34-1.27-5.09-1.9q-1-.34-5.29-1.58c.38-1.33.64-2.33.77-3a47.74,47.74,0,0,0,.66-5.15,49.37,49.37,0,0,0-.25-5.88Z"/><path class="cls-2" d="M146.59,65.75c3.63,1,6.1,1.66,7.42,2.11a33.63,33.63,0,0,1,6.48,2.84q1.94,1.24-4,4.35a13.25,13.25,0,0,1-5.27,0,23.56,23.56,0,0,1-5.7-3Z"/></svg>