<svg width="1920" height="212" viewBox="0 0 1920 212" fill="none" xmlns="http://www.w3.org/2000/svg">
<path d="M1920 212L-0.00012207 212L-0.000115688 139L175.667 158.353C215.742 162.768 256.204 162.32 296.171 157.018L392.807 144.199C418.741 140.759 445.074 141.82 470.647 147.336L514.143 156.717C560.624 166.743 608.887 164.842 654.436 151.194L953.612 61.5448C1087.37 21.465 1230.15 23.0188 1363 66L1475 113L1540.74 139.427C1564.06 148.797 1590.04 149.049 1613.53 140.132L1657.76 123.341C1675.35 116.662 1694.74 116.399 1712.51 122.599L1920 195L1920 212Z" fill="url(#paint0_linear_501_5)" fill-opacity="0.8"/>
<path d="M0.000122945 178L1920 178L1920 105L1744.33 124.353C1704.26 128.768 1663.8 128.32 1623.83 123.018L1535.79 111.339C1504.17 107.145 1472.06 108.439 1440.88 115.164L1419.54 119.765C1363.71 131.808 1306.07 132.934 1249.81 123.08L922.599 65.7756C817.762 47.4154 710.441 48.5084 606 69L389.86 127.947C366.123 134.421 340.833 131.917 318.827 120.914L265.226 94.1133C245.902 84.4513 223.492 83.0159 203.093 90.1338L-1.48616e-06 161L0.000122945 178Z" fill="url(#paint1_linear_501_5)" fill-opacity="0.5"/>
<defs>
<linearGradient id="paint0_linear_501_5" x1="960" y1="216" x2="960" y2="39" gradientUnits="userSpaceOnUse">
<stop stop-color="#130C27" stop-opacity="0"/>
<stop offset="1" stop-color="#521CEC"/>
</linearGradient>
<linearGradient id="paint1_linear_501_5" x1="960" y1="182" x2="960" y2="4.99993" gradientUnits="userSpaceOnUse">
<stop stop-color="#130C27" stop-opacity="0"/>
<stop offset="1" stop-color="#201CEC"/>
</linearGradient>
</defs>
</svg>
